<svg xmlns="http://www.w3.org/2000/svg" viewBox="0 0 64 64" role="img" aria-label="SlateSim logo">
  <defs>
    <linearGradient id="slatesimGradient" x1="0%" y1="0%" x2="100%" y2="100%">
      <stop offset="0%" stop-color="#f97316" />
      <stop offset="100%" stop-color="#fb923c" />
    </linearGradient>
  </defs>
  <rect x="4" y="4" width="56" height="56" rx="14" fill="#111827" />
  <circle cx="32" cy="32" r="22" fill="url(#slatesimGradient)" />
  <path d="M22 32c0-6.4 4.6-10.5 11.5-10.5 3.6 0 6.5.9 8.8 2.6l-2.5 4.2c-1.7-1.2-3.8-1.8-6.3-1.8-3.4 0-5.7 1.9-5.7 4.7 0 3.1 2.3 4.9 6 4.9 2.2 0 4.2-.5 5.9-1.5l2.4 4.1c-2.3 1.5-5.2 2.3-8.5 2.3-7.1 0-11.6-3.8-11.6-10z" fill="#fff" />
  <path d="M21 45h22" stroke="#fff" stroke-width="3" stroke-linecap="round" opacity=".9" />
</svg>
